<svg xmlns="http://www.w3.org/2000/svg" viewBox="0 0 14 14" fill="none"><path fill="#38342a" d="M8 0h1v1H8zM7 1h1v1H7zm2 0h1v1H9zM7 2h1v1H7zm3 0h1v1h-1zM6 3h1v1H6zm2 0h1v1H8zm3 0h1v1h-1zM5 4h1v1H5zm4 0h1v1H9zm3 0h1v1h-1zM4 5h1v1H4zm6 0h1v1h-1zm2 0h1v1h-1zm1 0h1v1h-1zM3 6h1v1H3zm8 0h1v1h-1zm2 0h1v1h-1zM2 7h1v1H2zm9 0h1v1h-1zm1 0h1v1h-1zM1 8h1v1H1zm9 0h1v1h-1zM1 9h1v1H1zm8 0h1v1H9zm-7 1h1v1H2zm6 0h1v1H8zm-5 1h1v1H3zm4 0h1v1H7zm-3 1h1v1H4zm2 0h1v1H6zm1 0h1v1H7zm-2 1h1v1H5z"/><path fill="#dbd0b4" d="M8 1h1v2H8zm1 1h1v2H9zm1 1h1v2h-1zm1 1h1v2h-1zM7 3h1v1H7zM6 4h3v6H6zM4 6h2v6H4zm1-1h1v1H5zm0 7h1v1H5zm1-2h2v1H6zm0 1h1v1H6zm3-6h1v1H9zm0 3h1v1H9zm0-2h2v2H9zM3 7h1v1H3zm0 3h1v1H3zM2 8h2v2H2z"/><path fill="#38342a" d="M6 13h1v1H6z"/><path fill="#807a6d" d="M12 6h1v1h-1z"/><path fill="#9a927e" d="M2 9h1v1H2zm1 1h1v1H3zm1 1h1v1H4zm1 1h1v1H5z"/><path fill="#aea694" d="M2 8h1v1H2zm1 1h1v1H3zm1 1h1v1H4zm1 1h1v1H5z"/><path fill="#bcb29c" d="M9 3h1v1H9zm1 1h1v1h-1zm1 1h1v1h-1zm-1 1h1v2h-1zM9 7h1v2H9zM7 9h2v1H7zm0 1h1v1H7zm-1 1h1v1H6z"/><path fill="#c6bca5" d="M8 2h1v1H8zM6 4h1v1H6zm1 1h1v1H7zm1 1h2v1H8zM5 7h1v1H5zm1 1h2v1H6z"/></svg>