<svg xmlns="http://www.w3.org/2000/svg" viewBox="0 0 12 13" fill="none"><path fill="#d7742f" d="M2 3h8v8H2z"/><path fill="#66534d" d="M4 0h1v3H4zm3 0h1v3H7zM3 0h1v1H3zm5 0h1v1H8zM2 1h1v1H2zm7 0h1v1H9zM1 2h1v1H1zm9 0h1v1h-1zM2 3h1v1H2zm7 0h1v1H9z"/><path fill="#8d7168" d="M3 1h1v1H3zm5 0h1v1H8zM2 2h1v1H2zm7 0h1v1H9z"/><path fill="#e7d9d3" d="M3 2h1v1H3zm5 0h1v1H8zM3 6h1v1H3zm5 0h1v1H8zM2 8h1v1H2zm7 0h1v1H9z"/><path fill="#f9f4f4" d="M5 11h2v1H5z"/><path fill="#e7d9d3" d="M5 11h2v1H5z"/><path fill="#13151a" d="M5 10h2v1H5zM3 7h1v2H3zm5 0h1v2H8z"/><path fill="#f9f4f4" d="M2 6h1v2H2zm7 0h1v2H9zm-5 4h1v2H4zm3 0h1v2H7z"/><path fill="#a44e37" d="M5 2h2v1H5zM4 3h1v1H4zm3 0h1v1H7zM1 3h1v8H1zm9 0h1v8h-1zM0 8h1v1H0zm11 0h1v1h-1z"/><path fill="#a44e37" d="M1 9h1v2H1zm9 0h1v2h-1zm-8 2h2v1H2zm6 0h2v1H8zm-4 1h4v1H4z"/><path fill="#bf6134" d="M5 8h2v1H5zm-3 2h2v1H2zm6 0h2v1H8z"/><path fill="#a44e37" d="M1 5h1v4H1zm9 0h1v4h-1zM0 6h1v1H0zm11 0h1v1h-1z"/><path fill="#bf6134" d="M2 4h2v1H2zm6 0h2v1H8zM5 3h2v1H5z"/><path fill="#e68c37" d="M5 4h2v2H5zm0 2h1v1H5z"/><path fill="#c7a3b9" d="M3 3h1v1H3zm5 0h1v1H8z"/></svg>